<?xml version="1.0" standalone="no"?>
<!DOCTYPE svg PUBLIC "-//W3C//DTD SVG 20010904//EN"
 "http://www.w3.org/TR/2001/REC-SVG-20010904/DTD/svg10.dtd">
<svg version="1.0" xmlns="http://www.w3.org/2000/svg"
 width="1640.000000pt" height="924.000000pt" viewBox="0 0 1640.000000 924.000000"
 preserveAspectRatio="xMidYMid meet">

<g transform="translate(0.000000,924.000000) scale(0.100000,-0.100000)"
fill="#000000" stroke="none">
<path d="M16284 6742 c-61 -81 -151 -199 -199 -262 -49 -63 -144 -188 -212
-277 l-124 -163 -107 0 c-59 0 -260 -4 -447 -9 -187 -6 -452 -12 -590 -15
-137 -4 -353 -8 -480 -11 -126 -3 -280 -8 -342 -11 l-111 -6 18 -46 c11 -26
38 -101 60 -167 23 -66 57 -164 76 -217 85 -242 105 -300 139 -398 20 -58 53
-149 72 -203 20 -54 34 -99 32 -102 -2 -2 -47 47 -99 109 -52 62 -207 245
-345 406 -137 161 -332 391 -433 509 -101 119 -186 217 -190 219 -4 1 -29
-163 -56 -365 -45 -349 -101 -781 -146 -1123 -43 -330 -53 -400 -60 -400 -3 0
-12 16 -19 35 -7 21 -17 33 -23 29 -7 -5 -8 -2 -3 5 8 14 -24 93 -35 86 -5 -3
-11 2 -14 11 -3 8 -2 12 4 9 13 -8 13 -2 -1 29 -7 14 -16 23 -22 19 -5 -3 -6
3 -2 17 5 17 4 21 -5 15 -8 -5 -11 -4 -7 2 9 14 -78 212 -100 230 -10 8 -12
12 -5 8 15 -8 15 -3 1 29 -7 14 -16 23 -20 20 -8 -5 -13 10 -10 30 4 18 -11
46 -21 40 -6 -4 -8 -2 -5 4 10 15 -3 43 -16 35 -6 -3 -7 -1 -3 6 10 16 -3 53
-16 45 -7 -5 -8 -2 -3 5 9 16 -25 92 -38 84 -6 -4 -7 -1 -2 6 9 15 -24 93 -36
85 -5 -3 -6 1 -4 9 8 20 -23 89 -37 81 -7 -4 -8 -3 -4 5 9 15 -3 53 -15 46 -5
-3 -6 2 -2 11 5 13 3 15 -7 9 -10 -6 -12 -4 -7 8 9 24 -13 70 -27 57 -8 -6
-12 -3 -12 10 0 10 4 16 9 13 4 -2 1 12 -9 34 -9 21 -25 59 -36 85 -12 27 -25
45 -31 41 -6 -4 -7 -1 -3 6 10 16 -13 73 -27 64 -6 -3 -7 -1 -3 5 8 13 -44
133 -54 127 -4 -3 -14 3 -21 13 -13 15 -12 16 4 3 9 -7 17 -9 17 -4 0 22 -63
152 -71 147 -5 -3 -6 2 -3 10 3 8 -2 29 -12 47 l-17 34 -33 -88 c-18 -48 -30
-95 -27 -104 4 -10 2 -14 -4 -10 -6 4 -16 -7 -23 -26 -6 -17 -20 -53 -30 -79
-10 -26 -16 -57 -13 -70 4 -19 3 -20 -7 -8 -10 12 -11 11 -7 -8 3 -12 1 -20
-3 -17 -9 5 -33 -55 -26 -63 3 -2 -1 -10 -8 -17 -19 -20 -98 -244 -90 -257 4
-6 3 -8 -4 -5 -10 7 -47 -82 -37 -91 3 -3 5 -1 5 4 0 6 7 19 16 30 15 18 15
18 5 -2 -6 -12 -8 -24 -5 -27 3 -3 -4 -8 -16 -12 -13 -4 -19 -12 -16 -21 3 -8
2 -13 -3 -10 -5 3 -14 -8 -20 -26 -13 -38 -14 -48 -1 -28 7 12 9 10 8 -7 -1
-11 -7 -19 -13 -16 -15 5 -66 -132 -58 -154 4 -10 2 -14 -4 -10 -7 4 -18 -12
-29 -40 -9 -27 -33 -88 -51 -136 -19 -49 -32 -95 -29 -103 4 -10 2 -12 -6 -8
-8 5 -9 2 -5 -10 4 -9 3 -15 -2 -12 -5 3 -20 -28 -35 -68 -27 -78 -32 -101
-16 -76 6 9 10 10 10 3 0 -18 -17 -25 -27 -11 -4 7 -70 163 -145 348 -76 186
-143 336 -150 338 -9 2 -50 -87 -127 -278 -63 -154 -117 -282 -121 -285 -3 -2
-63 37 -132 88 l-126 92 -10 73 c-16 118 -64 191 -157 240 -50 27 -52 27 -297
30 l-248 3 0 -505 0 -506 105 0 105 0 0 190 0 190 48 0 48 0 31 -64 32 -64
-50 -304 c-27 -167 -66 -400 -85 -518 -25 -152 -41 -220 -52 -231 -10 -9 -96
-46 -192 -82 -96 -36 -305 -116 -465 -177 -159 -61 -301 -115 -315 -120 -14
-5 -90 -34 -170 -65 l-145 -57 -415 7 -415 7 -365 -92 c-201 -50 -369 -95
-374 -100 -4 -4 -32 -111 -62 -237 -30 -125 -81 -340 -114 -478 -32 -137 -98
-412 -145 -610 -47 -198 -109 -457 -136 -575 -28 -118 -59 -246 -68 -285 l-17
-70 -39 0 c-46 1 -377 19 -745 40 -140 9 -320 19 -399 23 l-145 7 -28 -45
c-15 -25 -61 -101 -101 -170 l-73 -125 5644 -3 c3105 -1 5647 -1 5649 1 2 2 2
1552 1 3445 l-3 3441 -111 -147z m-4309 -832 c-3 -5 0 -10 7 -10 9 0 9 -3 -2
-10 -8 -5 -19 -10 -25 -10 -5 0 -3 5 5 10 8 5 11 10 7 10 -9 0 1 20 9 20 3 0
2 -4 -1 -10z m-20 -50 c3 -5 1 -10 -4 -10 -6 0 -11 5 -11 10 0 6 2 10 4 10 3
0 8 -4 11 -10z m-78 -200 c-2 -11 -6 -22 -9 -26 -4 -3 -5 2 -3 13 2 10 4 21 4
26 1 4 3 7 6 7 3 0 4 -9 2 -20z m-66 -163 c-10 -9 -11 -8 -5 6 3 10 9 15 12
12 3 -3 0 -11 -7 -18z m-33 -92 c-6 -14 -13 -23 -15 -21 -5 5 15 46 22 46 3 0
-1 -11 -7 -25z m-8 -39 c0 -3 -4 -8 -10 -11 -5 -3 -10 -1 -10 4 0 6 5 11 10
11 6 0 10 -2 10 -4z m-39 -79 c-10 -9 -11 -8 -5 6 3 10 9 15 12 12 3 -3 0 -11
-7 -18z m-124 -341 c-7 -14 -13 -23 -15 -21 -7 6 9 45 18 45 4 0 3 -11 -3 -24z
m-7 -40 c0 -2 -8 -10 -17 -17 -16 -13 -17 -12 -4 4 13 16 21 21 21 13z m-1316
-109 c17 -13 18 -19 6 -101 -16 -104 -18 -106 -146 -106 l-84 0 0 110 0 110
103 0 c70 0 109 -4 121 -13z m1243 -56 c0 -11 -5 -18 -9 -15 -4 3 -5 11 -1 19
7 21 12 19 10 -4z m-414 -313 c21 -59 37 -110 37 -113 0 -3 -21 -5 -47 -5 -35
1 -56 7 -77 24 l-29 24 34 96 c18 53 36 92 40 88 3 -4 22 -55 42 -114z m302
12 c3 -5 1 -10 -4 -10 -6 0 -11 5 -11 10 0 6 2 10 4 10 3 0 8 -4 11 -10z
m1068 -237 c-7 -2 -21 -2 -30 0 -10 3 -4 5 12 5 17 0 24 -2 18 -5z m-170 -10
c-23 -2 -64 -2 -90 0 -26 2 -7 3 42 3 50 0 71 -1 48 -3z"/>
<path d="M4556 5632 c-7 -12 -266 -650 -266 -656 0 -4 33 -6 73 -6 l73 0 13
35 12 35 105 0 105 0 15 -35 14 -35 74 0 74 0 -85 208 c-47 114 -108 264 -136
335 -47 119 -59 138 -71 119z m39 -385 c14 -37 25 -72 25 -77 0 -6 -25 -10
-56 -10 -41 0 -55 3 -52 13 3 6 15 42 28 79 13 37 25 66 27 65 1 -2 14 -33 28
-70z"/>
<path d="M6702 5569 l-122 -71 0 -142 0 -141 116 -68 c63 -37 120 -67 125 -67
4 0 10 60 11 134 l3 134 350 -204 c193 -112 357 -203 365 -203 8 0 173 91 365
203 193 112 354 200 358 196 5 -4 5 -128 1 -276 l-7 -269 -146 -84 c-80 -47
-241 -140 -358 -207 l-212 -122 -118 68 c-65 37 -338 194 -606 349 l-489 281
-116 -68 -117 -67 0 -429 0 -429 110 -63 c60 -35 113 -64 117 -64 4 0 9 187
10 415 l3 415 105 -61 c58 -33 111 -65 118 -71 9 -8 12 -106 12 -428 l0 -417
113 -67 c61 -36 121 -66 132 -65 22 0 477 260 482 275 2 7 -149 98 -227 137
-12 6 -48 -10 -129 -57 -62 -36 -114 -66 -117 -66 -2 0 -4 121 -4 269 l0 270
143 -83 c78 -46 240 -140 359 -210 l217 -127 588 340 c323 187 596 343 606
346 16 7 17 -17 17 -404 0 -264 4 -411 10 -411 5 0 62 30 125 66 l115 67 -2
425 -3 425 -122 69 -121 68 -112 -65 c-61 -36 -113 -65 -116 -65 -2 0 -5 60
-5 133 -1 72 -4 197 -8 276 l-6 144 -119 68 -119 69 -31 -19 c-17 -10 -180
-105 -363 -210 l-332 -191 -323 186 c-178 103 -341 197 -363 210 l-41 23 -122
-70z"/>
<path d="M4940 5300 l0 -330 65 0 65 0 0 177 0 178 83 -83 82 -82 83 82 82 83
0 -178 0 -177 65 0 65 0 0 330 c0 318 -1 330 -19 330 -12 0 -67 -53 -146 -140
-70 -77 -128 -140 -130 -140 -2 0 -60 63 -130 140 -79 87 -134 140 -146 140
-18 0 -19 -12 -19 -330z"/>
<path d="M3810 5295 l0 -325 65 0 65 0 0 325 0 325 -65 0 -65 0 0 -325z"/>
<path d="M9140 4515 l0 -505 265 0 265 0 0 105 0 105 -160 0 -160 0 0 95 0 95
135 0 135 0 0 105 0 105 -135 0 -135 0 0 95 0 94 153 3 152 3 3 103 3 102
-261 0 -260 0 0 -505z"/>
<path d="M8395 4310 l-120 -70 -5 -135 -5 -135 -115 66 c-109 62 -116 65 -140
51 -158 -91 -220 -130 -213 -137 23 -21 467 -270 480 -270 15 0 170 84 226
122 l27 19 0 280 c0 153 -3 279 -7 279 -5 0 -62 -32 -128 -70z"/>
</g>
</svg>
